<svg data-v-423bf9ae="" xmlns="http://www.w3.org/2000/svg" viewBox="0 0 284.77687712445885 60" class="font"><!----><!----><!----><g data-v-423bf9ae="" id="2fc58581-0004-4756-b6fd-a9d04c304b63" fill="#22C4D6" transform="matrix(3.6855034828186035,0,0,3.6855034828186035,-1.6584731340408325,1.4373462200164795)"><path d="M7.27 10.61C8.08 10.61 8.95 10.01 9.69 9.23C9.77 9.13 9.81 9.02 9.81 8.92C9.81 8.78 9.73 8.65 9.58 8.58C9.25 8.88 8.60 9.28 8.15 9.28C7.27 9.28 6.83 7.52 6.58 5.67C7.87 4.87 8.75 3.43 8.75 2.16C8.75 0.84 7.80-0.28 5.33-0.28C2.60-0.28 0.45 0.64 0.45 2.30C0.45 3.00 0.87 3.63 1.58 3.63C1.78 3.63 1.97 3.58 2.18 3.49C2.02 3.29 1.90 3.04 1.90 2.67C1.90 1.62 2.70 0.39 5.05 0.39C6.47 0.39 7.03 1.25 7.03 2.27C7.03 3.74 5.88 5.53 4.44 5.64L5.42 1.02C5.25 0.91 5.01 0.84 4.76 0.84C4.27 0.84 3.74 1.06 3.60 1.71L1.62 10.43C1.78 10.54 2.04 10.61 2.37 10.61C2.88 10.61 3.43 10.37 3.57 9.72L4.30 6.30L4.49 6.30C4.66 6.30 4.83 6.29 4.98 6.27C5.21 8.34 5.80 10.61 7.27 10.61ZM14.53 4.72C14.53 4.09 14.21 3.37 12.94 3.37C10.63 3.37 9.42 6.29 9.42 8.11C9.42 9.83 10.49 10.61 11.80 10.61C13.16 10.61 14.78 9.77 15.75 8.36C15.90 8.11 15.76 7.81 15.40 7.88C14.80 8.68 13.51 9.39 12.50 9.39C11.86 9.39 11.34 9.11 11.20 8.36C13.90 6.86 14.53 5.91 14.53 4.72ZM13.03 4.47C13.27 4.47 13.44 4.69 13.44 5.01C13.44 5.92 12.52 6.90 11.16 7.76C11.20 6.78 11.65 4.47 13.03 4.47ZM16.28 10.61C18.34 10.61 19.15 9.60 19.15 8.25C19.15 6.47 16.86 6.79 16.86 5.31C16.86 4.55 17.29 4.17 17.67 4.17C18.00 4.17 18.30 4.41 18.30 4.93C18.30 5.21 18.20 5.52 18.06 5.68C18.24 5.81 18.44 5.87 18.62 5.88C19.14 5.91 19.60 5.52 19.60 4.73C19.60 3.82 19.03 3.37 17.84 3.37C16.21 3.37 15.44 4.41 15.44 5.53C15.44 7.63 17.75 7.50 17.75 8.57C17.75 9.25 17.18 9.69 16.65 9.69C16.20 9.69 15.76 9.41 15.76 8.76C15.76 8.43 15.88 8.09 16.06 7.88C15.90 7.74 15.72 7.69 15.50 7.69C14.81 7.69 14.41 8.19 14.31 8.76C14.15 9.70 14.78 10.61 16.28 10.61ZM20.30 7.92C20.06 8.97 20.06 10.61 21.62 10.61C22.41 10.61 23.10 9.94 23.66 9.03C23.59 10.26 24.28 10.61 24.96 10.61C25.72 10.61 26.73 9.97 27.38 9.23C27.47 9.13 27.51 9.02 27.51 8.92C27.51 8.78 27.43 8.65 27.27 8.58C26.92 8.93 26.32 9.28 25.80 9.28C25.44 9.28 25.21 9.03 25.38 8.25L26.36 3.61C26.19 3.50 25.96 3.43 25.70 3.43C25.20 3.43 24.67 3.67 24.53 4.31L23.69 8.27C23.31 8.72 22.89 9.00 22.40 9.00C21.98 9.00 21.80 8.75 21.92 8.18L22.78 4.20C22.90 3.67 22.61 3.43 22.11 3.43C21.52 3.43 21.01 3.72 20.54 4.10C20.26 4.33 20.36 4.76 20.54 4.87C20.66 4.76 20.75 4.70 20.82 4.70C20.94 4.70 21.01 4.83 20.96 5.05ZM29.71 4.20C29.83 3.67 29.54 3.43 29.04 3.43C28.45 3.43 27.94 3.72 27.47 4.10C27.19 4.33 27.29 4.76 27.47 4.87C27.59 4.76 27.68 4.70 27.75 4.70C27.87 4.70 27.94 4.83 27.89 5.05L26.74 10.43C26.91 10.54 27.15 10.61 27.40 10.61C27.90 10.61 28.43 10.37 28.57 9.73L29.43 5.74C29.81 5.29 30.21 5.01 30.72 5.01C31.18 5.01 31.15 5.39 31.05 5.84L30.07 10.43C30.24 10.54 30.48 10.61 30.73 10.61C31.23 10.61 31.77 10.37 31.91 9.73L32.77 5.66C33.14 5.26 33.52 5.01 33.99 5.01C34.45 5.01 34.44 5.39 34.33 5.84L33.74 8.62C33.39 10.26 34.13 10.61 34.83 10.61C35.77 10.61 36.71 9.97 37.37 9.23C37.45 9.13 37.49 9.02 37.49 8.92C37.49 8.78 37.41 8.65 37.25 8.58C36.90 8.93 36.30 9.28 35.78 9.28C35.50 9.28 35.32 9.11 35.41 8.71L36.09 5.49C36.46 3.85 35.55 3.43 34.92 3.43C34.10 3.43 33.40 4.03 32.82 4.87C32.86 3.88 32.21 3.43 31.64 3.43C30.84 3.43 30.14 4.00 29.57 4.83ZM42.21 4.72C42.21 4.09 41.89 3.37 40.61 3.37C38.30 3.37 37.10 6.29 37.10 8.11C37.10 9.83 38.16 10.61 39.48 10.61C40.84 10.61 42.46 9.77 43.43 8.36C43.58 8.11 43.44 7.81 43.08 7.88C42.48 8.68 41.19 9.39 40.18 9.39C39.54 9.39 39.02 9.11 38.88 8.36C41.58 6.86 42.21 5.91 42.21 4.72ZM40.71 4.47C40.95 4.47 41.12 4.69 41.12 5.01C41.12 5.92 40.19 6.90 38.84 7.76C38.88 6.78 39.33 4.47 40.71 4.47ZM48.47 2.86C48.47 1.39 49.48 0.67 50.41 0.57L48.19 10.43C48.34 10.54 48.61 10.61 48.93 10.61C49.45 10.61 49.99 10.37 50.13 9.72L51.02 5.57C51.42 5.66 51.81 5.81 52.23 5.81C52.96 5.81 53.34 5.10 53.00 4.66C52.43 4.94 51.87 4.76 51.20 4.69L51.98 1.02C52.70 1.34 53.47 1.72 54.03 1.72C55.03 1.72 55.71 0.87 55.40-0.39C53.79 0.32 52.44-0.28 50.89-0.28C49.56-0.28 47.01 0.21 47.01 2.51C47.01 3.18 47.43 3.81 48.16 3.81C48.34 3.81 48.54 3.77 48.75 3.67C48.55 3.44 48.47 3.09 48.47 2.86ZM56.76 3.37C54.64 3.37 53.17 6.02 53.17 8.13C53.17 9.45 53.79 10.61 55.23 10.61C57.43 10.61 58.93 7.97 58.93 5.88C58.93 4.51 58.28 3.37 56.76 3.37ZM57.06 4.44C57.64 4.44 57.88 5.01 57.88 5.77C57.88 7.24 56.98 9.39 55.87 9.39C55.38 9.39 54.96 8.92 54.96 7.69C54.96 6.31 55.79 4.44 57.06 4.44ZM62.12 4.20C62.23 3.67 61.95 3.43 61.45 3.43C60.86 3.43 60.35 3.72 59.88 4.10C59.60 4.33 59.70 4.76 59.88 4.87C60.00 4.76 60.09 4.70 60.16 4.70C60.28 4.70 60.34 4.83 60.30 5.05L59.15 10.43C59.32 10.54 59.56 10.61 59.81 10.61C60.31 10.61 60.84 10.37 60.98 9.73L61.15 8.88C61.87 5.64 62.52 5.01 62.99 5.01C63.28 5.01 63.42 5.17 63.42 5.36C63.42 5.53 63.36 5.71 63.27 5.80C63.39 5.84 63.55 5.85 63.67 5.85C64.40 5.85 64.79 5.17 64.79 4.54C64.79 3.96 64.44 3.43 63.77 3.43C63.13 3.43 62.52 3.82 61.96 4.96ZM71.64 9.21C71.88 9.00 71.83 8.69 71.62 8.51C71.13 8.93 70.39 9.35 69.62 9.73C69.66 9.55 69.71 9.35 69.75 9.16L70.92 3.61C70.76 3.50 70.52 3.43 70.27 3.43C69.92 3.43 69.54 3.56 69.30 3.84C68.95 3.53 68.50 3.37 67.87 3.37C65.93 3.37 64.34 5.81 64.34 8.26C64.34 9.16 64.64 10.61 66.09 10.61C66.85 10.61 67.56 10.08 68.14 9.31C68.03 9.70 67.93 10.05 67.83 10.40C65.94 11.10 63.76 12.43 63.76 14.17C63.76 15.33 64.55 15.89 65.41 15.89C67.83 15.89 68.81 13.13 69.44 10.53C70.43 10.07 71.39 9.44 71.64 9.21ZM68.25 8.29C67.87 8.81 67.28 9.17 66.84 9.17C66.40 9.17 66.08 8.86 66.08 8.16C66.08 6.64 66.68 4.42 68.38 4.42C68.59 4.42 68.80 4.45 69.03 4.54ZM65.28 14.64C65.10 14.64 64.71 14.48 64.71 13.99C64.71 13.05 66.00 12.00 67.54 11.38C66.82 13.68 66.25 14.64 65.28 14.64ZM76.44 4.72C76.44 4.09 76.12 3.37 74.84 3.37C72.53 3.37 71.33 6.29 71.33 8.11C71.33 9.83 72.39 10.61 73.71 10.61C75.07 10.61 76.69 9.77 77.66 8.36C77.81 8.11 77.67 7.81 77.31 7.88C76.71 8.68 75.42 9.39 74.41 9.39C73.77 9.39 73.25 9.11 73.11 8.36C75.81 6.86 76.44 5.91 76.44 4.72ZM74.94 4.47C75.18 4.47 75.35 4.69 75.35 5.01C75.35 5.92 74.42 6.90 73.07 7.76C73.11 6.78 73.56 4.47 74.94 4.47Z"></path></g><!----><!----></svg>